<svg width="17" height="16" viewBox="0 0 17 16" fill="none" xmlns="http://www.w3.org/2000/svg">
<path d="M14.452 1.67901H12.74V0.82963C12.74 0.605761 12.6538 0.414815 12.4813 0.25679C12.322 0.0855967 12.1296 0 11.904 0C11.6651 0 11.4594 0.0855967 11.2869 0.25679C11.1276 0.414815 11.048 0.605761 11.048 0.82963V1.67901H5.95199V0.82963C5.95199 0.605761 5.86573 0.414815 5.69321 0.25679C5.53396 0.0855967 5.33489 0 5.09602 0C4.87041 0 4.67135 0.0855967 4.49883 0.25679C4.33958 0.414815 4.25995 0.605761 4.25995 0.82963V1.67901H2.54801C1.84465 1.67901 1.24083 1.92922 0.736534 2.42963C0.245511 2.91687 0 3.50947 0 4.20741V13.4716C0 14.1695 0.245511 14.7687 0.736534 15.2691C1.24083 15.7564 1.84465 16 2.54801 16H14.452C15.1553 16 15.7525 15.7564 16.2436 15.2691C16.7479 14.7687 17 14.1695 17 13.4716V4.20741C17 3.50947 16.7479 2.91687 16.2436 2.42963C15.7525 1.92922 15.1553 1.67901 14.452 1.67901ZM15.2881 13.4716C15.2881 13.7086 15.2018 13.9128 15.0293 14.084C14.87 14.242 14.6776 14.321 14.452 14.321H2.54801C2.3224 14.321 2.12334 14.242 1.95082 14.084C1.79157 13.9128 1.71194 13.7086 1.71194 13.4716V4.20741C1.71194 3.97037 1.79157 3.77284 1.95082 3.61481C2.12334 3.44362 2.3224 3.35802 2.54801 3.35802H4.25995V4.20741C4.25995 4.44444 4.33958 4.64856 4.49883 4.81975C4.67135 4.97778 4.87041 5.05679 5.09602 5.05679C5.33489 5.05679 5.53396 4.97778 5.69321 4.81975C5.86573 4.64856 5.95199 4.44444 5.95199 4.20741V3.35802H11.048V4.20741C11.048 4.44444 11.1276 4.64856 11.2869 4.81975C11.4594 4.97778 11.6651 5.05679 11.904 5.05679C12.1296 5.05679 12.322 4.97778 12.4813 4.81975C12.6538 4.64856 12.74 4.44444 12.74 4.20741V3.35802H14.452C14.6776 3.35802 14.87 3.44362 15.0293 3.61481C15.2018 3.77284 15.2881 3.97037 15.2881 4.20741V13.4716ZM11.6253 6.75556C11.7049 6.8214 11.7713 6.91358 11.8244 7.0321C11.8774 7.13745 11.904 7.24938 11.904 7.3679C11.904 7.47325 11.8841 7.5786 11.8443 7.68395C11.8044 7.77613 11.7447 7.86173 11.6651 7.94074L8.16159 11.7333C8.09524 11.8123 8.00234 11.8782 7.8829 11.9309C7.77674 11.9835 7.66393 12.0099 7.5445 12.0099C7.42506 12.0099 7.30562 11.9835 7.18618 11.9309C7.08002 11.8782 6.99375 11.8123 6.9274 11.7333L5.33489 10.0148C5.25527 9.9358 5.19555 9.85021 5.15574 9.75802C5.11592 9.65267 5.09602 9.54733 5.09602 9.44198C5.09602 9.20494 5.17564 9.00741 5.33489 8.84938C5.50742 8.67819 5.71311 8.59259 5.95199 8.59259C6.07143 8.59259 6.18423 8.61893 6.2904 8.67161C6.40984 8.71111 6.50273 8.77695 6.56909 8.86914L7.5445 9.91605L10.4309 6.79506C10.4973 6.71605 10.5835 6.65021 10.6897 6.59753C10.8091 6.54486 10.9286 6.51852 11.048 6.51852C11.1542 6.51852 11.2537 6.53827 11.3466 6.57778C11.4528 6.61728 11.5457 6.67654 11.6253 6.75556Z" fill="#00A3D1"/>
</svg>
