<svg width="22" height="14" viewBox="0 0 22 14" fill="none" xmlns="http://www.w3.org/2000/svg">
<path fill-rule="evenodd" clip-rule="evenodd" d="M7.24452 1.13043C7.16324 1.04895 7.06668 0.984295 6.96038 0.940184C6.85408 0.896072 6.74012 0.873367 6.62502 0.873367C6.50993 0.873367 6.39597 0.896072 6.28966 0.940184C6.18336 0.984295 6.0868 1.04895 6.00552 1.13043L0.755519 6.38043C0.674033 6.46171 0.609384 6.55827 0.565272 6.66457C0.521161 6.77088 0.498455 6.88484 0.498455 6.99993C0.498455 7.11502 0.521161 7.22898 0.565272 7.33529C0.609384 7.44159 0.674033 7.53815 0.755519 7.61943L6.00552 12.8694C6.16982 13.0337 6.39266 13.126 6.62502 13.126C6.85738 13.126 7.08022 13.0337 7.24452 12.8694C7.40882 12.7051 7.50113 12.4823 7.50113 12.2499C7.50113 12.0176 7.40882 11.7947 7.24452 11.6304L2.61227 6.99993L7.24452 2.36943C7.32601 2.28815 7.39066 2.19159 7.43477 2.08529C7.47888 1.97899 7.50159 1.86502 7.50159 1.74993C7.50159 1.63484 7.47888 1.52088 7.43477 1.41457C7.39066 1.30827 7.32601 1.21171 7.24452 1.13043Z" fill="#AFB9C0"/>
<path fill-rule="evenodd" clip-rule="evenodd" d="M21.5 7C21.5 6.76794 21.4078 6.54538 21.2437 6.38128C21.0796 6.21719 20.8571 6.125 20.625 6.125H2.25C2.01793 6.125 1.79538 6.21719 1.63128 6.38128C1.46719 6.54538 1.375 6.76794 1.375 7C1.375 7.23206 1.46719 7.45462 1.63128 7.61872C1.79538 7.78281 2.01793 7.875 2.25 7.875H20.625C20.8571 7.875 21.0796 7.78281 21.2437 7.61872C21.4078 7.45462 21.5 7.23206 21.5 7Z" fill="#AFB9C0"/>
</svg>
