<svg width="319" height="41" viewBox="0 0 319 41" fill="none" xmlns="http://www.w3.org/2000/svg">
<path d="M50.9325 22.8172C50.9325 27.0652 53.7165 29.7052 57.6525 29.7052C61.0125 29.7052 63.3885 27.7612 64.0845 24.6652H59.7165C59.3565 25.6492 58.7085 26.2012 57.5805 26.2012C56.1165 26.2012 55.1085 25.0492 55.1085 22.8172C55.1085 20.5852 56.1165 19.4332 57.5805 19.4332C58.7085 19.4332 59.3805 20.0332 59.7165 20.9692H64.0845C63.3885 17.7772 61.0125 15.9292 57.6525 15.9292C53.7165 15.9292 50.9325 18.5932 50.9325 22.8172ZM65.4637 22.7932C65.4637 27.0172 68.0797 29.7052 71.3437 29.7052C73.3357 29.7052 74.7517 28.7932 75.4957 27.6172V29.5132H79.5997V16.1212H75.4957V18.0172C74.7757 16.8412 73.3597 15.9292 71.3677 15.9292C68.0797 15.9292 65.4637 18.5692 65.4637 22.7932ZM75.4957 22.8172C75.4957 24.9532 74.1277 26.1292 72.5677 26.1292C71.0317 26.1292 69.6397 24.9292 69.6397 22.7932C69.6397 20.6572 71.0317 19.5052 72.5677 19.5052C74.1277 19.5052 75.4957 20.6812 75.4957 22.8172ZM91.8088 29.5132H95.8888V21.6892C95.8888 18.0892 93.8248 15.9772 90.7288 15.9772C88.9288 15.9772 87.4888 16.7692 86.6728 17.8972V16.1212H82.5688V29.5132H86.6728V22.2412C86.6728 20.4172 87.6808 19.4092 89.2408 19.4092C90.8008 19.4092 91.8088 20.4172 91.8088 22.2412V29.5132ZM97.9247 22.7932C97.9247 27.0172 100.541 29.7052 103.805 29.7052C105.797 29.7052 107.213 28.7932 107.957 27.6172V29.5132H112.061V16.1212H107.957V18.0172C107.237 16.8412 105.821 15.9292 103.829 15.9292C100.541 15.9292 97.9247 18.5692 97.9247 22.7932ZM107.957 22.8172C107.957 24.9532 106.589 26.1292 105.029 26.1292C103.493 26.1292 102.101 24.9292 102.101 22.7932C102.101 20.6572 103.493 19.5052 105.029 19.5052C106.589 19.5052 107.957 20.6812 107.957 22.8172ZM114.214 22.7932C114.214 27.0172 116.83 29.7052 120.118 29.7052C122.086 29.7052 123.502 28.8172 124.246 27.5932V29.5132H128.35V11.7532H124.246V17.9692C123.43 16.7452 121.894 15.9292 120.118 15.9292C116.83 15.9292 114.214 18.5692 114.214 22.7932ZM124.246 22.8172C124.246 24.9532 122.878 26.1292 121.318 26.1292C119.782 26.1292 118.39 24.9292 118.39 22.7932C118.39 20.6572 119.782 19.5052 121.318 19.5052C122.878 19.5052 124.246 20.6812 124.246 22.8172ZM130.503 22.7932C130.503 27.0172 133.119 29.7052 136.383 29.7052C138.375 29.7052 139.791 28.7932 140.535 27.6172V29.5132H144.639V16.1212H140.535V18.0172C139.815 16.8412 138.399 15.9292 136.407 15.9292C133.119 15.9292 130.503 18.5692 130.503 22.7932ZM140.535 22.8172C140.535 24.9532 139.167 26.1292 137.607 26.1292C136.071 26.1292 134.679 24.9292 134.679 22.7932C134.679 20.6572 136.071 19.5052 137.607 19.5052C139.167 19.5052 140.535 20.6812 140.535 22.8172ZM147.368 22.7932H157.928V19.3852H147.368V22.7932ZM160.714 22.8172C160.714 27.0652 163.498 29.7052 167.434 29.7052C170.794 29.7052 173.17 27.7612 173.866 24.6652H169.498C169.138 25.6492 168.49 26.2012 167.362 26.2012C165.898 26.2012 164.89 25.0492 164.89 22.8172C164.89 20.5852 165.898 19.4332 167.362 19.4332C168.49 19.4332 169.162 20.0332 169.498 20.9692H173.866C173.17 17.7772 170.794 15.9292 167.434 15.9292C163.498 15.9292 160.714 18.5932 160.714 22.8172ZM176.061 29.5132H180.165V16.1212H176.061V29.5132ZM178.125 14.7292C179.565 14.7292 180.549 13.7452 180.549 12.5212C180.549 11.2732 179.565 10.2892 178.125 10.2892C176.661 10.2892 175.677 11.2732 175.677 12.5212C175.677 13.7452 176.661 14.7292 178.125 14.7292ZM187.243 23.2972C187.243 20.9932 188.371 20.3212 190.315 20.3212H191.443V15.9772C189.643 15.9772 188.179 16.9372 187.243 18.3532V16.1212H183.139V29.5132H187.243V23.2972ZM192.589 22.8172C192.589 27.0652 195.373 29.7052 199.309 29.7052C202.669 29.7052 205.045 27.7612 205.741 24.6652H201.373C201.013 25.6492 200.365 26.2012 199.237 26.2012C197.773 26.2012 196.765 25.0492 196.765 22.8172C196.765 20.5852 197.773 19.4332 199.237 19.4332C200.365 19.4332 201.037 20.0332 201.373 20.9692H205.741C205.045 17.7772 202.669 15.9292 199.309 15.9292C195.373 15.9292 192.589 18.5932 192.589 22.8172ZM221.16 16.1212H217.056V23.3932C217.056 25.2172 216.048 26.2252 214.464 26.2252C212.928 26.2252 211.896 25.2172 211.896 23.3932V16.1212H207.816V23.9452C207.816 27.5212 209.904 29.6572 213 29.6572C214.8 29.6572 216.24 28.8412 217.056 27.6892V29.5132H221.16V16.1212ZM224.108 29.5132H228.212V11.7532H224.108V29.5132ZM230.37 22.7932C230.37 27.0172 232.986 29.7052 236.25 29.7052C238.242 29.7052 239.658 28.7932 240.402 27.6172V29.5132H244.506V16.1212H240.402V18.0172C239.682 16.8412 238.266 15.9292 236.274 15.9292C232.986 15.9292 230.37 18.5692 230.37 22.7932ZM240.402 22.8172C240.402 24.9532 239.034 26.1292 237.474 26.1292C235.938 26.1292 234.546 24.9292 234.546 22.7932C234.546 20.6572 235.938 19.5052 237.474 19.5052C239.034 19.5052 240.402 20.6812 240.402 22.8172ZM247.475 29.5132H251.579V16.1212H247.475V29.5132ZM249.539 14.7292C250.979 14.7292 251.963 13.7452 251.963 12.5212C251.963 11.2732 250.979 10.2892 249.539 10.2892C248.075 10.2892 247.091 11.2732 247.091 12.5212C247.091 13.7452 248.075 14.7292 249.539 14.7292ZM258.657 23.2972C258.657 20.9932 259.785 20.3212 261.729 20.3212H262.857V15.9772C261.057 15.9772 259.593 16.9372 258.657 18.3532V16.1212H254.553V29.5132H258.657V23.2972ZM270.723 19.2172C272.091 19.2172 273.243 20.0572 273.243 21.5212H268.107C268.347 20.0332 269.379 19.2172 270.723 19.2172ZM277.131 25.0732H272.763C272.427 25.7932 271.779 26.3692 270.627 26.3692C269.307 26.3692 268.227 25.5532 268.083 23.8012H277.371C277.419 23.3932 277.443 22.9852 277.443 22.6012C277.443 18.5212 274.683 15.9292 270.771 15.9292C266.787 15.9292 264.003 18.5692 264.003 22.8172C264.003 27.0652 266.835 29.7052 270.771 29.7052C274.107 29.7052 276.483 27.6892 277.131 25.0732ZM290.48 25.6252C290.408 20.6332 283.16 22.1452 283.16 20.0092C283.16 19.3612 283.688 18.9772 284.648 18.9772C285.8 18.9772 286.496 19.5772 286.616 20.4892H290.408C290.144 17.8492 288.224 15.9292 284.768 15.9292C281.264 15.9292 279.32 17.8012 279.32 20.0812C279.32 25.0012 286.616 23.4412 286.616 25.6012C286.616 26.2012 286.064 26.6812 285.008 26.6812C283.88 26.6812 283.04 26.0572 282.944 25.1212H278.888C279.08 27.7132 281.48 29.7052 285.056 29.7052C288.416 29.7052 290.48 27.9532 290.48 25.6252Z" fill="white"/>
<circle cx="19.4888" cy="20.8477" r="19.4888" fill="url(#paint0_linear)"/>
<path d="M12.5666 26.8934L11.5365 15.6772H7.08423L8.95568 26.8934H12.5666Z" fill="white"/>
<path d="M25.6001 26.8934L26.6302 15.6772H31.0824L29.211 26.8934H25.6001Z" fill="white"/>
<path d="M18.2656 15.6772H13.1785L14.2086 26.8934H18.2656V15.6772Z" fill="white"/>
<path d="M24.988 15.6772H19.9009V26.8934H23.9579L24.988 15.6772Z" fill="white"/>
<path d="M10.4314 7.81456L16.9244 0.551352L15.17 0L8.27759 7.81456H10.4314Z" fill="white"/>
<path d="M29.889 7.8145L23.0787 0.0820333L21.8372 1.1463L27.7352 7.8145H29.889Z" fill="white"/>
<path d="M5.12866 9.44995V11.7979C5.12866 13.0372 6.13329 14.0418 7.37253 14.0418H30.7942C32.0334 14.0418 33.0381 13.0372 33.0381 11.7979V9.44995H5.12866Z" fill="white"/>
<defs>
<linearGradient id="paint0_linear" x1="3.07717" y1="5.46179" x2="34.3618" y2="37.2592" gradientUnits="userSpaceOnUse">
<stop stop-color="#00A3D1"/>
<stop offset="1" stop-color="#289DF2"/>
</linearGradient>
</defs>
</svg>
