<svg width="12" height="16" viewBox="0 0 12 16" fill="none" xmlns="http://www.w3.org/2000/svg">
<path d="M6 0C2.68286 0 0 2.57216 0 5.75244C0 9.17925 3.78857 13.9045 5.34857 15.7042C5.69143 16.0986 6.31714 16.0986 6.66 15.7042C8.21143 13.9045 12 9.17925 12 5.75244C12 2.57216 9.31714 0 6 0ZM6 7.80688C5.43168 7.80688 4.88663 7.59043 4.48477 7.20515C4.08291 6.81987 3.85714 6.29731 3.85714 5.75244C3.85714 5.20757 4.08291 4.68501 4.48477 4.29973C4.88663 3.91445 5.43168 3.698 6 3.698C6.56832 3.698 7.11337 3.91445 7.51523 4.29973C7.91709 4.68501 8.14286 5.20757 8.14286 5.75244C8.14286 6.29731 7.91709 6.81987 7.51523 7.20515C7.11337 7.59043 6.56832 7.80688 6 7.80688Z" fill="#6C7683"/>
</svg>
