<svg width="16" height="16" viewBox="0 0 16 16" fill="none" xmlns="http://www.w3.org/2000/svg">
<path fill-rule="evenodd" clip-rule="evenodd" d="M10.146 4.64604C10.1925 4.59948 10.2477 4.56253 10.3084 4.53733C10.3692 4.51212 10.4343 4.49915 10.5 4.49915C10.5658 4.49915 10.6309 4.51212 10.6917 4.53733C10.7524 4.56253 10.8076 4.59948 10.854 4.64604L13.854 7.64604C13.9006 7.69248 13.9375 7.74766 13.9628 7.80841C13.988 7.86915 14.0009 7.93427 14.0009 8.00004C14.0009 8.06581 13.988 8.13093 13.9628 8.19167C13.9375 8.25242 13.9006 8.30759 13.854 8.35404L10.854 11.354C10.7602 11.4479 10.6328 11.5007 10.5 11.5007C10.3673 11.5007 10.2399 11.4479 10.146 11.354C10.0522 11.2602 9.99941 11.1328 9.99941 11C9.99941 10.8673 10.0522 10.7399 10.146 10.646L12.793 8.00004L10.146 5.35404C10.0995 5.30759 10.0625 5.25242 10.0373 5.19167C10.0121 5.13093 9.99915 5.06581 9.99915 5.00004C9.99915 4.93427 10.0121 4.86915 10.0373 4.80841C10.0625 4.74766 10.0995 4.69248 10.146 4.64604Z" fill="white"/>
<path fill-rule="evenodd" clip-rule="evenodd" d="M2 8C2 7.86739 2.05268 7.74021 2.14645 7.64645C2.24021 7.55268 2.36739 7.5 2.5 7.5H13C13.1326 7.5 13.2598 7.55268 13.3536 7.64645C13.4473 7.74021 13.5 7.86739 13.5 8C13.5 8.13261 13.4473 8.25979 13.3536 8.35355C13.2598 8.44732 13.1326 8.5 13 8.5H2.5C2.36739 8.5 2.24021 8.44732 2.14645 8.35355C2.05268 8.25979 2 8.13261 2 8Z" fill="white"/>
</svg>
