<svg width="22" height="14" viewBox="0 0 22 14" fill="none" xmlns="http://www.w3.org/2000/svg">
<path fill-rule="evenodd" clip-rule="evenodd" d="M14.7556 1.13043C14.8369 1.04895 14.9334 0.984295 15.0397 0.940184C15.146 0.896072 15.26 0.873367 15.3751 0.873367C15.4902 0.873367 15.6042 0.896072 15.7105 0.940184C15.8168 0.984295 15.9133 1.04895 15.9946 1.13043L21.2446 6.38043C21.3261 6.46171 21.3907 6.55827 21.4348 6.66457C21.479 6.77088 21.5017 6.88484 21.5017 6.99993C21.5017 7.11502 21.479 7.22898 21.4348 7.33529C21.3907 7.44159 21.3261 7.53815 21.2446 7.61943L15.9946 12.8694C15.8303 13.0337 15.6075 13.126 15.3751 13.126C15.1427 13.126 14.9199 13.0337 14.7556 12.8694C14.5913 12.7051 14.499 12.4823 14.499 12.2499C14.499 12.0176 14.5913 11.7947 14.7556 11.6304L19.3879 6.99993L14.7556 2.36943C14.6741 2.28815 14.6095 2.19159 14.5654 2.08529C14.5212 1.97899 14.4985 1.86502 14.4985 1.74993C14.4985 1.63484 14.5212 1.52088 14.5654 1.41457C14.6095 1.30827 14.6741 1.21171 14.7556 1.13043Z" fill="#AFB9C0"/>
<path fill-rule="evenodd" clip-rule="evenodd" d="M0.5 7C0.5 6.76794 0.592187 6.54538 0.756282 6.38128C0.920376 6.21719 1.14294 6.125 1.375 6.125H19.75C19.9821 6.125 20.2046 6.21719 20.3687 6.38128C20.5328 6.54538 20.625 6.76794 20.625 7C20.625 7.23206 20.5328 7.45462 20.3687 7.61872C20.2046 7.78281 19.9821 7.875 19.75 7.875H1.375C1.14294 7.875 0.920376 7.78281 0.756282 7.61872C0.592187 7.45462 0.5 7.23206 0.5 7Z" fill="#AFB9C0"/>
</svg>
