<svg width="18" height="17" viewBox="0 0 18 17" fill="none" xmlns="http://www.w3.org/2000/svg">
<path d="M17.6775 15.1467L12.8915 11.2609C13.8744 9.89481 14.3379 8.22295 14.1985 6.54581C14.0591 4.86867 13.3261 3.29623 12.1312 2.11114C11.4756 1.44489 10.6944 0.915263 9.83284 0.552894C8.97123 0.190525 8.04632 0.00261185 7.11162 2.70343e-05C6.17691 -0.00255778 5.25098 0.180237 4.38738 0.537835C3.52378 0.895433 2.73967 1.42073 2.08041 2.08335C1.08617 3.08317 0.409683 4.35461 0.136002 5.73782C-0.13768 7.12104 0.00365762 8.55429 0.542246 9.8574C1.08083 11.1605 1.99263 12.2753 3.16302 13.0617C4.33341 13.8481 5.71015 14.2709 7.12016 14.277C8.90835 14.2967 10.6344 13.6217 11.9349 12.3942L16.8052 16.3643C16.8658 16.4179 16.937 16.4582 17.0143 16.4825C17.0915 16.5067 17.173 16.5144 17.2535 16.505C17.3704 16.51 17.4866 16.4839 17.5904 16.4296C17.6941 16.3753 17.7817 16.2947 17.8443 16.1957C17.9062 16.1174 17.9513 16.0271 17.9765 15.9306C18.0018 15.834 18.0067 15.7332 17.991 15.6346C17.9754 15.536 17.9394 15.4418 17.8855 15.3578C17.8315 15.2738 17.7607 15.2019 17.6775 15.1467ZM7.09147 12.7537C6.35231 12.7559 5.62019 12.61 4.93832 12.3247C4.25645 12.0394 3.63864 11.6203 3.12136 11.0923C2.06536 10.04 1.46817 8.61296 1.45997 7.1222C1.45799 6.38312 1.60406 5.65113 1.88956 4.96942C2.17506 4.28771 2.5942 3.67008 3.12226 3.15298C4.1776 2.1021 5.60221 1.5058 7.09147 1.49159C7.83064 1.48938 8.56276 1.63525 9.24463 1.92059C9.9265 2.20594 10.5443 2.62498 11.0616 3.15298C12.1127 4.20855 12.709 5.63352 12.723 7.1231C12.7252 7.86226 12.5793 8.59438 12.294 9.27625C12.0086 9.95812 11.5896 10.5759 11.0616 11.0932C10.5458 11.6232 9.92831 12.0435 9.24607 12.3288C8.56383 12.6142 7.83096 12.7587 7.09147 12.7537Z" fill="#6C7683"/>
</svg>
